<svg width="24" height="24" viewBox="0 0 24 24" fill="none" xmlns="http://www.w3.org/2000/svg">
<g opacity="0.89">
<path d="M4.62315 6.90902C4.54362 6.36249 4.92221 5.85498 5.46874 5.77545L13.3854 4.62356C13.9319 4.54404 14.4394 4.92262 14.5189 5.46915L14.6999 6.71263H16.7209L16.3541 4.1916C16.1951 3.09854 15.18 2.34137 14.087 2.50041L4.19119 3.94028C3.09813 4.09933 2.34096 5.11436 2.5 6.20741L3.93987 16.1032C4.08483 17.0995 4.9409 17.8167 5.91903 17.8155V15.8876C5.91903 15.8394 5.91554 15.7913 5.90861 15.7436L4.62315 6.90902Z" fill="#E6E6E6"/>
<path d="M12.2209 17.6164V11.3846C12.2209 11.2228 12.4031 11.128 12.5356 11.2208L16.9869 14.3366C17.1006 14.4163 17.1006 14.5847 16.9869 14.6643L12.5356 17.7802C12.4031 17.873 12.2209 17.7782 12.2209 17.6164Z" fill="#E6E6E6"/>
<path fill-rule="evenodd" clip-rule="evenodd" d="M19.2209 7.50049H9.22093C8.11636 7.50049 7.22093 8.39592 7.22093 9.50049V19.5005C7.22093 20.6051 8.11636 21.5005 9.22093 21.5005H19.2209C20.3255 21.5005 21.2209 20.6051 21.2209 19.5005V9.50049C21.2209 8.39592 20.3255 7.50049 19.2209 7.50049ZM18.2209 9.50049L10.2209 9.50049C9.66864 9.50049 9.22093 9.9482 9.22093 10.5005V18.5005C9.22093 19.0528 9.66864 19.5005 10.2209 19.5005H18.2209C18.7732 19.5005 19.2209 19.0528 19.2209 18.5005V10.5005C19.2209 9.9482 18.7732 9.50049 18.2209 9.50049Z" fill="#E6E6E6"/>
<path d="M5.39675 5.28066C4.57695 5.39995 4.00907 6.16122 4.12836 6.98101L5.41382 15.8156C5.41728 15.8395 5.41903 15.8635 5.41903 15.8876V17.2299C4.91127 17.0499 4.5176 16.6012 4.43466 16.0312L2.99479 6.13542C2.87551 5.31563 3.44338 4.55435 4.26318 4.43507L14.159 2.9952C14.9788 2.87592 15.74 3.4438 15.8593 4.26359L16.1429 6.21263H15.1324L15.0137 5.39716C14.8944 4.57737 14.1332 4.00949 13.3134 4.12877L5.39675 5.28066ZM16.349 14.5005L12.7209 17.0402V11.9608L16.349 14.5005ZM16.7001 14.7463C16.6999 14.7461 16.6997 14.746 16.6996 14.7459L16.7001 14.7463ZM16.6996 14.2551C16.6997 14.255 16.6999 14.2549 16.7001 14.2547L16.6996 14.2551ZM9.22093 8.00049H19.2209C20.0494 8.00049 20.7209 8.67206 20.7209 9.50049V19.5005C20.7209 20.3289 20.0494 21.0005 19.2209 21.0005H9.22093C8.3925 21.0005 7.72093 20.3289 7.72093 19.5005V9.50049C7.72093 8.67206 8.3925 8.00049 9.22093 8.00049ZM18.2209 9.00049L10.2209 9.00049C9.3925 9.00049 8.72093 9.67206 8.72093 10.5005V18.5005C8.72093 19.3289 9.3925 20.0005 10.2209 20.0005H18.2209C19.0494 20.0005 19.7209 19.3289 19.7209 18.5005V10.5005C19.7209 9.67206 19.0494 9.00049 18.2209 9.00049Z" stroke="#E6E6E6"/>
</g>
</svg>
