<svg width="0" height="0" class="hidden">
    <symbol fill="none" xmlns="http://www.w3.org/2000/svg" viewBox="0 0 123 22" id="logo">
        <path d="M26.76 1.7H20.928L13.896 13.556L6.86398 1.7H1.03198V18.5H5.35198V6.98L12.336 18.5H15.456L22.44 6.98V18.5H26.76V1.7Z"
              fill="white"></path>
        <path d="M48.5 20.5C61.4079 20.5 67 17.0958 67 10.9736C67 4.87778 61.4079 1.5 48.5 1.5C35.55 1.5 30 4.85139 30 10.9736C30 17.1222 35.55 20.5 48.5 20.5ZM48.5 17C40.6375 17 36 14.7736 36 10.9736C36 7.2 40.5954 5 48.5 5C56.4045 5 61 7.22639 61 10.9736C61 14.7472 56.3625 17 48.5 17Z"
              fill="#D22F26"></path>
        <path d="M88.128 1.7L81.384 15.308L74.64 1.7H69.792L78.432 18.5H84.336L92.976 1.7H88.128Z" fill="white"></path>
        <path d="M100.329 1.7H96.0085V18.5H100.329V1.7Z" fill="white"></path>
        <path d="M122.003 5.132V1.7H104.243V18.5H122.003V15.068H108.563V11.66H122.003V8.54H108.563V5.132H122.003Z"
              fill="white"></path>
    </symbol>
    <symbol fill="none" xmlns="http://www.w3.org/2000/svg" viewBox="0 0 18 18" id="Play">
        <path d="M13.8756 8.46594C14.4266 8.87529 14.4108 9.7053 13.8447 10.0934L6.06546 15.4267C5.40185 15.8817 4.5 15.4066 4.5 14.602L4.5 3.48879C4.5 2.66682 5.4366 2.19588 6.09639 2.68609L13.8756 8.46594Z"
              fill="#161615"></path>
    </symbol>
    <symbol fill="none" xmlns="http://www.w3.org/2000/svg" viewBox="0 0 24 24" id="Type=Arrow">
        <path fill-rule="evenodd" clip-rule="evenodd" d="M7 10L12 15L17 10H7Z" fill="#E6E6E6"></path>
    </symbol>
    <symbol fill="none" xmlns="http://www.w3.org/2000/svg" viewBox="0 0 24 24" id="Type=Bookmark">
        <path fill-rule="evenodd" clip-rule="evenodd"
              d="M17 3H7C5.9 3 5 3.9 5 5V21L12 18L19 21V5C19 3.9 18.1 3 17 3ZM17 18L12 15.82L7 18V5H17V18Z"
              fill="#E6E6E6"></path>
    </symbol>
    <symbol fill="none" xmlns="http://www.w3.org/2000/svg" viewBox="0 0 24 24" id="Type=Cancel, Property=Default">
        <rect width="24" height="24" rx="12" fill="#737373"></rect>
        <path d="M17.25 7.8075L16.1925 6.75L12 10.9425L7.8075 6.75L6.75 7.8075L10.9425 12L6.75 16.1925L7.8075 17.25L12 13.0575L16.1925 17.25L17.25 16.1925L13.0575 12L17.25 7.8075Z"
              fill="#090808"></path>
    </symbol>
    <symbol fill="none" xmlns="http://www.w3.org/2000/svg" viewBox="0 0 24 24" id="Type=Cancel">
        <path d="M19 6.41L17.59 5L12 10.59L6.41 5L5 6.41L10.59 12L5 17.59L6.41 19L12 13.41L17.59 19L19 17.59L13.41 12L19 6.41Z"
              fill="#E6E6E6"></path>
    </symbol>
    <symbol fill="none" xmlns="http://www.w3.org/2000/svg" viewBox="0 0 24 24" id="Type=Home">
        <path d="M14 14.5H10V20.5H3.5V9.62354C3.5 9.54568 3.53628 9.47225 3.59814 9.42495L11.8481 3.11613C11.9378 3.04758 12.0622 3.04758 12.1519 3.11613L20.4019 9.42495C20.4637 9.47225 20.5 9.54568 20.5 9.62354V20.5H14V14.5Z"
              fill="#E6E6E6"></path>
    </symbol>
    <symbol fill="none" xmlns="http://www.w3.org/2000/svg" viewBox="0 0 44 44" id="Type=Icon Only, Property=Default">
        <rect x="0.5" y="0.5" width="43" height="43" rx="21.5" stroke="#737373"></rect>
        <path d="M26.8756 21.4659C27.4266 21.8753 27.4108 22.7053 26.8447 23.0934L19.0655 28.4267C18.4019 28.8817 17.5 28.4066 17.5 27.602L17.5 16.4888C17.5 15.6668 18.4366 15.1959 19.0964 15.6861L26.8756 21.4659Z"
              fill="white"></path>
    </symbol>
    <symbol fill="none" xmlns="http://www.w3.org/2000/svg" viewBox="0 0 44 44" id="Type=Icon Only, Property=Hover">
        <rect width="44" height="44" rx="22" fill="white"></rect>
        <path d="M26.8756 21.4659C27.4266 21.8753 27.4108 22.7053 26.8447 23.0934L19.0655 28.4267C18.4019 28.8817 17.5 28.4066 17.5 27.602L17.5 16.4888C17.5 15.6668 18.4366 15.1959 19.0964 15.6861L26.8756 21.4659Z"
              fill="#161615"></path>
    </symbol>
    <symbol fill="none" xmlns="http://www.w3.org/2000/svg" viewBox="0 0 24 24" id="Type=Menu">
        <path d="M3 18H21V16H3V18ZM3 13H21V11H3V13ZM3 6V8H21V6H3Z" fill="#E6E6E6"></path>
    </symbol>
    <symbol fill="none" xmlns="http://www.w3.org/2000/svg" viewBox="0 0 44 44" id="Type=Icon Only, Property=Inactive">
        <rect x="0.5" y="0.5" width="43" height="43" rx="21.5" stroke="#737373"></rect>
        <path d="M26.8756 21.4659C27.4266 21.8753 27.4108 22.7053 26.8447 23.0934L19.0655 28.4267C18.4019 28.8817 17.5 28.4066 17.5 27.602L17.5 16.4888C17.5 15.6668 18.4366 15.1959 19.0964 15.6861L26.8756 21.4659Z"
              fill="#737373"></path>
    </symbol>
    <symbol fill="none" xmlns="http://www.w3.org/2000/svg" viewBox="0 0 24 24" id="Type=Search">
        <g clip-path="url(#clip0_1_716)">
            <path fill-rule="evenodd" clip-rule="evenodd"
                  d="M11 18C14.866 18 18 14.866 18 11C18 7.13401 14.866 4 11 4C7.13401 4 4 7.13401 4 11C4 14.866 7.13401 18 11 18ZM11 20C13.1138 20 15.0574 19.2713 16.5932 18.0514C17.164 17.598 17.6785 17.0768 18.1245 16.5C19.3003 14.9791 20 13.0712 20 11C20 6.02944 15.9706 2 11 2C6.02944 2 2 6.02944 2 11C2 15.9706 6.02944 20 11 20Z"
                  fill="#E6E6E6"></path>
            <path d="M21.826 20.674C21.9225 20.5775 21.9238 20.4213 21.8288 20.3233L18.1245 16.5C17.6785 17.0768 17.164 17.598 16.5932 18.0514L20.3232 21.8213C20.4207 21.9199 20.5797 21.9203 20.6777 21.8223L21.826 20.674Z"
                  fill="#E6E6E6"></path>
        </g>
        <defs>
            <clipPath id="clip0_1_716">
                <rect width="24" height="24" fill="white"></rect>
            </clipPath>
        </defs>
    </symbol>
    <symbol fill="none" xmlns="http://www.w3.org/2000/svg" viewBox="0 0 24 24" id="Type=Movie">
        <g opacity="0.89">
            <path d="M4.62315 6.90902C4.54362 6.36249 4.92221 5.85498 5.46874 5.77545L13.3854 4.62356C13.9319 4.54404 14.4394 4.92262 14.5189 5.46915L14.6999 6.71263H16.7209L16.3541 4.1916C16.1951 3.09854 15.18 2.34137 14.087 2.50041L4.19119 3.94028C3.09813 4.09933 2.34096 5.11436 2.5 6.20741L3.93987 16.1032C4.08483 17.0995 4.9409 17.8167 5.91903 17.8155V15.8876C5.91903 15.8394 5.91554 15.7913 5.90861 15.7436L4.62315 6.90902Z"
                  fill="#E6E6E6"></path>
            <path d="M12.2209 17.6164V11.3846C12.2209 11.2228 12.4031 11.128 12.5356 11.2208L16.9869 14.3366C17.1006 14.4163 17.1006 14.5847 16.9869 14.6643L12.5356 17.7802C12.4031 17.873 12.2209 17.7782 12.2209 17.6164Z"
                  fill="#E6E6E6"></path>
            <path fill-rule="evenodd" clip-rule="evenodd"
                  d="M19.2209 7.50049H9.22093C8.11636 7.50049 7.22093 8.39592 7.22093 9.50049V19.5005C7.22093 20.6051 8.11636 21.5005 9.22093 21.5005H19.2209C20.3255 21.5005 21.2209 20.6051 21.2209 19.5005V9.50049C21.2209 8.39592 20.3255 7.50049 19.2209 7.50049ZM18.2209 9.50049L10.2209 9.50049C9.66864 9.50049 9.22093 9.9482 9.22093 10.5005V18.5005C9.22093 19.0528 9.66864 19.5005 10.2209 19.5005H18.2209C18.7732 19.5005 19.2209 19.0528 19.2209 18.5005V10.5005C19.2209 9.9482 18.7732 9.50049 18.2209 9.50049Z"
                  fill="#E6E6E6"></path>
            <path d="M5.39675 5.28066C4.57695 5.39995 4.00907 6.16122 4.12836 6.98101L5.41382 15.8156C5.41728 15.8395 5.41903 15.8635 5.41903 15.8876V17.2299C4.91127 17.0499 4.5176 16.6012 4.43466 16.0312L2.99479 6.13542C2.87551 5.31563 3.44338 4.55435 4.26318 4.43507L14.159 2.9952C14.9788 2.87592 15.74 3.4438 15.8593 4.26359L16.1429 6.21263H15.1324L15.0137 5.39716C14.8944 4.57737 14.1332 4.00949 13.3134 4.12877L5.39675 5.28066ZM16.349 14.5005L12.7209 17.0402V11.9608L16.349 14.5005ZM16.7001 14.7463C16.6999 14.7461 16.6997 14.746 16.6996 14.7459L16.7001 14.7463ZM16.6996 14.2551C16.6997 14.255 16.6999 14.2549 16.7001 14.2547L16.6996 14.2551ZM9.22093 8.00049H19.2209C20.0494 8.00049 20.7209 8.67206 20.7209 9.50049V19.5005C20.7209 20.3289 20.0494 21.0005 19.2209 21.0005H9.22093C8.3925 21.0005 7.72093 20.3289 7.72093 19.5005V9.50049C7.72093 8.67206 8.3925 8.00049 9.22093 8.00049ZM18.2209 9.00049L10.2209 9.00049C9.3925 9.00049 8.72093 9.67206 8.72093 10.5005V18.5005C8.72093 19.3289 9.3925 20.0005 10.2209 20.0005H18.2209C19.0494 20.0005 19.7209 19.3289 19.7209 18.5005V10.5005C19.7209 9.67206 19.0494 9.00049 18.2209 9.00049Z"
                  stroke="#E6E6E6"></path>
        </g>
    </symbol>
    <symbol fill="none" xmlns="http://www.w3.org/2000/svg" viewBox="0 0 24 24" id="Type=Play">
        <path d="M18.8756 11.5664C19.4266 11.9757 19.4108 12.8058 18.8447 13.1939L7.56546 20.9267C6.90185 21.3817 6 20.9066 6 20.102L6 3.98879C6 3.16682 6.9366 2.69588 7.59639 3.18609L18.8756 11.5664Z"
              fill="#000000"></path>
    </symbol>
    <symbol fill="none" xmlns="http://www.w3.org/2000/svg" viewBox="0 0 24 24" id="Type=Star">
        <g clip-path="url(#clip0_1_723)">
            <path d="M12 17.27L18.18 21L16.54 13.97L22 9.24L14.81 8.63L12 2L9.19 8.63L2 9.24L7.46 13.97L5.82 21L12 17.27Z"
                  fill="#E6E6E6"></path>
        </g>
        <defs>
            <clipPath id="clip0_1_723">
                <rect width="24" height="24" fill="white"></rect>
            </clipPath>
        </defs>
    </symbol>
    <symbol fill="none" xmlns="http://www.w3.org/2000/svg" viewBox="0 0 12 12" id="Vector">
        <path d="M11.25 1.8075L10.1925 0.75L6 4.9425L1.8075 0.75L0.75 1.8075L4.9425 6L0.75 10.1925L1.8075 11.25L6 7.0575L10.1925 11.25L11.25 10.1925L7.0575 6L11.25 1.8075Z"
              fill="#090808"></path>
    </symbol>
    <symbol width="24" height="24" viewBox="0 0 24 24" fill="none" xmlns="http://www.w3.org/2000/svg" id="Type=Series">
        <path fill-rule="evenodd" clip-rule="evenodd"
              d="M12 20.5C16.9706 20.5 20.5 16.9706 20.5 12C20.5 7.02944 16.9706 3.5 12 3.5C7.02944 3.5 3.5 7.02944 3.5 12C3.5 16.9706 7.02944 20.5 12 20.5ZM12 22.5C18.0751 22.5 22.5 18.0751 22.5 12C22.5 5.92487 18.0751 1.5 12 1.5C5.92487 1.5 1.5 5.92487 1.5 12C1.5 18.0751 5.92487 22.5 12 22.5Z"
              fill="#E6E6E6"/>
        <path d="M5.27551 11H7.27551L7.32675 10.8359C7.43458 10.4907 7.6224 10.1405 7.97045 10.0423C8.06648 10.0152 8.16855 10 8.27551 10C8.38247 10 8.48453 10.0152 8.58056 10.0423C8.92861 10.1405 9.11644 10.4907 9.22426 10.8359L9.27551 11H11.2755C11.2755 10.6363 11.141 9.80534 11 9.55855C10.8491 9.29444 10.6413 9.03953 10.3915 8.81656C9.89187 8.37044 9.16278 8 8.27551 8C7.38823 8 6.65915 8.37044 6.15949 8.81656C5.90976 9.03953 5.70193 9.29444 5.55101 9.55855C5.40999 9.80534 5.27551 10.6363 5.27551 11Z"
              fill="#E6E6E6"/>
        <path d="M13 11H15L15.0512 10.8359C15.1591 10.4907 15.3469 10.1405 15.6949 10.0423C15.791 10.0152 15.893 10 16 10C16.107 10 16.209 10.0152 16.305 10.0423C16.6531 10.1405 16.8409 10.4907 16.9487 10.8359L17 11H19C19 10.6363 18.8655 9.80534 18.7245 9.55855C18.5736 9.29444 18.3657 9.03953 18.116 8.81656C17.6164 8.37044 16.8873 8 16 8C15.1127 8 14.3836 8.37044 13.884 8.81656C13.6342 9.03953 13.4264 9.29444 13.2755 9.55855C13.1345 9.80534 13 10.6363 13 11Z"
              fill="#E6E6E6"/>
        <path fill-rule="evenodd" clip-rule="evenodd"
              d="M10.7177 17.5308C8.64439 17.1191 7.04938 15.7325 6.2 14.6L7.8 13.4C8.45062 14.2675 9.65561 15.2809 11.1073 15.5692C12.4704 15.8398 14.257 15.5125 16.2628 13.3243L17.7372 14.6757C15.343 17.2875 12.8796 17.9602 10.7177 17.5308Z"
              fill="#E6E6E6"/>
    </symbol>
    <symbol width="24" height="24" viewBox="0 0 24 24" fill="none" xmlns="http://www.w3.org/2000/svg" id="Type=Share">
        <g clip-path="url(#clip0_1_729)">
            <path d="M18 16.08C17.24 16.08 16.56 16.38 16.04 16.85L8.91 12.7C8.96 12.47 9 12.24 9 12C9 11.76 8.96 11.53 8.91 11.3L15.96 7.19C16.5 7.69 17.21 8 18 8C19.66 8 21 6.66 21 5C21 3.34 19.66 2 18 2C16.34 2 15 3.34 15 5C15 5.24 15.04 5.47 15.09 5.7L8.04 9.81C7.5 9.31 6.79 9 6 9C4.34 9 3 10.34 3 12C3 13.66 4.34 15 6 15C6.79 15 7.5 14.69 8.04 14.19L15.16 18.35C15.11 18.56 15.08 18.78 15.08 19C15.08 20.61 16.39 21.92 18 21.92C19.61 21.92 20.92 20.61 20.92 19C20.92 17.39 19.61 16.08 18 16.08ZM18 4C18.55 4 19 4.45 19 5C19 5.55 18.55 6 18 6C17.45 6 17 5.55 17 5C17 4.45 17.45 4 18 4ZM6 13C5.45 13 5 12.55 5 12C5 11.45 5.45 11 6 11C6.55 11 7 11.45 7 12C7 12.55 6.55 13 6 13ZM18 20.02C17.45 20.02 17 19.57 17 19.02C17 18.47 17.45 18.02 18 18.02C18.55 18.02 19 18.47 19 19.02C19 19.57 18.55 20.02 18 20.02Z"
                  fill="#E6E6E6"/>
        </g>
        <defs>
            <clipPath id="clip0_1_729">
                <rect width="24" height="24" fill="white"/>
            </clipPath>
        </defs>
    </symbol>

</svg>
